<svg width="600" height="157" viewBox="0 0 600 157" fill="none" xmlns="http://www.w3.org/2000/svg">
<path d="M389.103 1.2666C398.401 1.26661 407.385 2.8738 416.055 6.08984C424.724 9.23599 432.554 13.851 439.546 19.9336L423.605 46.1514C419.201 41.3972 413.992 37.7611 407.979 35.2441C401.967 32.6573 395.674 31.3643 389.103 31.3643C382.461 31.3643 376.238 32.6228 370.436 35.1396C364.633 37.6566 359.563 41.0823 355.229 45.417C350.894 49.6817 347.468 54.7504 344.951 60.623C342.434 66.4259 341.176 72.6137 341.176 79.1855C341.176 85.7575 342.434 91.9452 344.951 97.748C347.468 103.481 350.894 108.515 355.229 112.85C359.563 117.184 364.633 120.61 370.436 123.127C376.238 125.644 382.461 126.902 389.103 126.902C395.674 126.902 401.967 125.644 407.979 123.127C413.992 120.54 419.201 116.869 423.605 112.115L439.546 138.333C432.554 144.346 424.724 148.961 416.055 152.177C407.385 155.393 398.401 157 389.103 157C381.971 157 375.084 156.057 368.442 154.169C361.871 152.351 355.683 149.764 349.88 146.408C344.147 142.982 338.903 138.893 334.149 134.139C329.395 129.384 325.306 124.14 321.88 118.407C318.524 112.605 315.902 106.417 314.015 99.8457C312.197 93.2038 311.287 86.3168 311.287 79.1855C311.287 72.0544 312.197 65.1681 314.015 58.5264C315.902 51.8845 318.524 45.6968 321.88 39.9639C325.306 34.161 329.395 28.8821 334.149 24.1279C338.904 19.3738 344.147 15.3187 349.88 11.9629C355.683 8.53713 361.871 5.91543 368.442 4.09766C375.084 2.20997 381.971 1.2666 389.103 1.2666ZM522.29 1.47559C529.421 1.47559 536.308 2.41994 542.95 4.30762C549.592 6.12537 555.779 8.71257 561.512 12.0684C567.245 15.4242 572.489 19.4792 577.243 24.2334C581.997 28.9875 586.052 34.231 589.408 39.9639C592.764 45.6968 595.351 51.8846 597.169 58.5264C599.057 65.168 600 72.0545 600 79.1855C600 86.3168 599.057 93.2038 597.169 99.8457C595.351 106.418 592.764 112.605 589.408 118.408C586.052 124.141 581.997 129.385 577.243 134.139C572.489 138.893 567.245 142.982 561.512 146.408C555.779 149.764 549.592 152.351 542.95 154.169C536.308 156.057 529.421 157 522.29 157C515.159 157 508.272 156.057 501.63 154.169C495.058 152.351 488.87 149.764 483.067 146.408C477.335 142.982 472.091 138.893 467.337 134.139C462.583 129.385 458.493 124.141 455.067 118.408C451.711 112.605 449.089 106.418 447.201 99.8457C445.383 93.2038 444.475 86.3168 444.475 79.1855C444.475 72.0545 445.383 65.168 447.201 58.5264C449.089 51.8845 451.711 45.6968 455.067 39.9639C458.493 34.231 462.583 28.9875 467.337 24.2334C472.091 19.4794 477.335 15.4242 483.067 12.0684C488.87 8.71252 495.058 6.12539 501.63 4.30762C508.272 2.41993 515.159 1.47559 522.29 1.47559ZM295.752 153.861H264.093V63.3174H295.752V153.861ZM60.1963 3.47461C65.7194 3.47461 71.0331 4.20863 76.1367 5.67676C81.2404 7.07503 85.9948 9.10306 90.3994 11.7598C94.8739 14.3466 98.9289 17.4928 102.564 21.1982C106.27 24.8337 109.416 28.8888 112.003 33.3633C114.66 37.8377 116.688 42.6268 118.086 47.7305C119.554 52.8341 120.288 58.1478 120.288 63.6709C120.288 68.8445 119.624 73.8785 118.296 78.7725C117.037 83.6665 115.184 88.3161 112.737 92.7207C110.36 97.1253 107.423 101.18 103.928 104.886C100.432 108.591 96.5172 111.808 92.1826 114.534L108.857 153.86H76.8711L63.7617 123.553L30.0986 123.763V153.86H0V3.47461H60.1963ZM241.932 33.2637H168.94V63.3623H218.335V93.46H168.94V123.453H241.932V153.552H138.843V3.16602H241.932V33.2637ZM522.29 31.3643C515.648 31.3643 509.426 32.6228 503.623 35.1396C497.82 37.6566 492.751 41.0823 488.416 45.417C484.081 49.6817 480.656 54.7504 478.139 60.623C475.622 66.4259 474.363 72.6137 474.363 79.1855C474.363 85.7575 475.622 91.9452 478.139 97.748C480.656 103.481 484.081 108.515 488.416 112.85C492.751 117.184 497.82 120.61 503.623 123.127C509.426 125.644 515.648 126.902 522.29 126.902C528.862 126.902 535.05 125.644 540.853 123.127C546.725 120.61 551.794 117.184 556.059 112.85C560.393 108.515 563.819 103.481 566.336 97.748C568.853 91.9452 570.111 85.7575 570.111 79.1855C570.111 72.6137 568.853 66.4259 566.336 60.623C563.819 54.7504 560.393 49.6817 556.059 45.417C551.794 41.0824 546.725 37.6565 540.853 35.1396C535.05 32.6227 528.862 31.3643 522.29 31.3643ZM30.0986 93.7695H60.1963C64.3212 93.7695 68.2014 93 71.8369 91.4619C75.4725 89.8539 78.6542 87.6866 81.3809 84.96C84.1074 82.2334 86.2393 79.0523 87.7773 75.417C89.3854 71.7115 90.1895 67.7958 90.1895 63.6709C90.1894 59.5461 89.3853 55.6657 87.7773 52.0303C86.2392 48.3249 84.1075 45.1084 81.3809 42.3818C78.6542 39.6552 75.4724 37.5235 71.8369 35.9854C68.2014 34.3774 64.3212 33.5732 60.1963 33.5732H30.0986V93.7695ZM281.134 0C283.931 4.88317e-05 286.544 0.556794 288.973 1.66992C291.475 2.70895 293.647 4.15633 295.487 6.01172C297.328 7.79295 298.763 9.94534 299.794 12.4688C300.898 14.9179 301.45 17.5157 301.45 20.2617C301.45 23.0819 300.898 25.7169 299.794 28.166C298.763 30.6151 297.328 32.7677 295.487 34.623C293.647 36.4041 291.475 37.8517 288.973 38.9648C286.544 40.0037 283.931 40.5234 281.134 40.5234C278.337 40.5234 275.686 40.0038 273.184 38.9648C270.755 37.8516 268.62 36.4042 266.779 34.623C265.013 32.7676 263.577 30.6151 262.473 28.166C261.442 25.7169 260.927 23.0819 260.927 20.2617C260.927 17.5157 261.442 14.9179 262.473 12.4688C263.577 9.94534 265.013 7.79295 266.779 6.01172C268.62 4.15627 270.754 2.70897 273.184 1.66992C275.686 0.556693 278.337 0 281.134 0Z" fill="#EAE2D5"/>
</svg>
